<svg width="175" height="121" viewBox="0 0 175 121" fill="none" xmlns="http://www.w3.org/2000/svg">
<path d="M14.376 96.168C14.376 94.376 14.7387 92.808 15.464 91.464C16.1893 90.0987 17.1813 89.0427 18.44 88.296C19.72 87.5493 21.1387 87.176 22.696 87.176C24.232 87.176 25.5653 87.5067 26.696 88.168C27.8267 88.8293 28.6693 89.6613 29.224 90.664V87.464H32.168V105H29.224V101.736C28.648 102.76 27.784 103.613 26.632 104.296C25.5013 104.957 24.1787 105.288 22.664 105.288C21.1067 105.288 19.6987 104.904 18.44 104.136C17.1813 103.368 16.1893 102.291 15.464 100.904C14.7387 99.5173 14.376 97.9387 14.376 96.168ZM29.224 96.2C29.224 94.8773 28.9573 93.7253 28.424 92.744C27.8907 91.7627 27.1653 91.016 26.248 90.504C25.352 89.9707 24.36 89.704 23.272 89.704C22.184 89.704 21.192 89.96 20.296 90.472C19.4 90.984 18.6853 91.7307 18.152 92.712C17.6187 93.6933 17.352 94.8453 17.352 96.168C17.352 97.512 17.6187 98.6853 18.152 99.688C18.6853 100.669 19.4 101.427 20.296 101.96C21.192 102.472 22.184 102.728 23.272 102.728C24.36 102.728 25.352 102.472 26.248 101.96C27.1653 101.427 27.8907 100.669 28.424 99.688C28.9573 98.6853 29.224 97.5227 29.224 96.2ZM36.345 93.96C36.345 91.72 36.7983 89.76 37.705 88.08C38.6117 86.3733 39.8517 85.0533 41.425 84.12C43.025 83.1867 44.8117 82.72 46.785 82.72C48.4917 82.72 50.0783 83.12 51.545 83.92C53.0117 84.6933 54.1317 85.72 54.905 87V75.4H58.585V105H54.905V100.88C54.185 102.187 53.1183 103.267 51.705 104.12C50.2917 104.947 48.6383 105.36 46.745 105.36C44.7983 105.36 43.025 104.88 41.425 103.92C39.8517 102.96 38.6117 101.613 37.705 99.88C36.7983 98.1467 36.345 96.1733 36.345 93.96ZM54.905 94C54.905 92.3467 54.5717 90.9067 53.905 89.68C53.2383 88.4533 52.3317 87.52 51.185 86.88C50.065 86.2133 48.825 85.88 47.465 85.88C46.105 85.88 44.865 86.2 43.745 86.84C42.625 87.48 41.7317 88.4133 41.065 89.64C40.3983 90.8667 40.065 92.3067 40.065 93.96C40.065 95.64 40.3983 97.1067 41.065 98.36C41.7317 99.5867 42.625 100.533 43.745 101.2C44.865 101.84 46.105 102.16 47.465 102.16C48.825 102.16 50.065 101.84 51.185 101.2C52.3317 100.533 53.2383 99.5867 53.905 98.36C54.5717 97.1067 54.905 95.6533 54.905 94ZM63.0323 96.168C63.0323 94.376 63.3949 92.808 64.1203 91.464C64.8456 90.0987 65.8376 89.0427 67.0963 88.296C68.3763 87.5493 69.7949 87.176 71.3523 87.176C72.8883 87.176 74.2216 87.5067 75.3523 88.168C76.4829 88.8293 77.3256 89.6613 77.8803 90.664V87.464H80.8243V105H77.8803V101.736C77.3043 102.76 76.4403 103.613 75.2883 104.296C74.1576 104.957 72.8349 105.288 71.3203 105.288C69.7629 105.288 68.3549 104.904 67.0963 104.136C65.8376 103.368 64.8456 102.291 64.1203 100.904C63.3949 99.5173 63.0323 97.9387 63.0323 96.168ZM77.8803 96.2C77.8803 94.8773 77.6136 93.7253 77.0803 92.744C76.5469 91.7627 75.8216 91.016 74.9043 90.504C74.0083 89.9707 73.0163 89.704 71.9283 89.704C70.8403 89.704 69.8483 89.96 68.9523 90.472C68.0563 90.984 67.3416 91.7307 66.8083 92.712C66.2749 93.6933 66.0083 94.8453 66.0083 96.168C66.0083 97.512 66.2749 98.6853 66.8083 99.688C67.3416 100.669 68.0563 101.427 68.9523 101.96C69.8483 102.472 70.8403 102.728 71.9283 102.728C73.0163 102.728 74.0083 102.472 74.9043 101.96C75.8216 101.427 76.5469 100.669 77.0803 99.688C77.6136 98.6853 77.8803 97.5227 77.8803 96.2ZM94.2893 87.144C96.4226 87.144 98.1506 87.7947 99.4733 89.096C100.796 90.376 101.457 92.232 101.457 94.664V105H98.5773V95.08C98.5773 93.3307 98.1399 91.9973 97.2653 91.08C96.3906 90.1413 95.1959 89.672 93.6813 89.672C92.1453 89.672 90.9186 90.152 90.0013 91.112C89.1053 92.072 88.6573 93.4693 88.6573 95.304V105H85.7453V87.464H88.6573V89.96C89.2333 89.064 90.0119 88.3707 90.9933 87.88C91.9959 87.3893 93.0946 87.144 94.2893 87.144ZM113.446 87.176C114.961 87.176 116.283 87.5067 117.414 88.168C118.566 88.8293 119.419 89.6613 119.974 90.664V87.464H122.918V105.384C122.918 106.984 122.577 108.403 121.894 109.64C121.211 110.899 120.23 111.88 118.95 112.584C117.691 113.288 116.219 113.64 114.534 113.64C112.23 113.64 110.31 113.096 108.774 112.008C107.238 110.92 106.331 109.437 106.054 107.56H108.934C109.254 108.627 109.915 109.48 110.918 110.12C111.921 110.781 113.126 111.112 114.534 111.112C116.134 111.112 117.435 110.611 118.438 109.608C119.462 108.605 119.974 107.197 119.974 105.384V101.704C119.398 102.728 118.545 103.581 117.414 104.264C116.283 104.947 114.961 105.288 113.446 105.288C111.889 105.288 110.47 104.904 109.19 104.136C107.931 103.368 106.939 102.291 106.214 100.904C105.489 99.5173 105.126 97.9387 105.126 96.168C105.126 94.376 105.489 92.808 106.214 91.464C106.939 90.0987 107.931 89.0427 109.19 88.296C110.47 87.5493 111.889 87.176 113.446 87.176ZM119.974 96.2C119.974 94.8773 119.707 93.7253 119.174 92.744C118.641 91.7627 117.915 91.016 116.998 90.504C116.102 89.9707 115.11 89.704 114.022 89.704C112.934 89.704 111.942 89.96 111.046 90.472C110.15 90.984 109.435 91.7307 108.902 92.712C108.369 93.6933 108.102 94.8453 108.102 96.168C108.102 97.512 108.369 98.6853 108.902 99.688C109.435 100.669 110.15 101.427 111.046 101.96C111.942 102.472 112.934 102.728 114.022 102.728C115.11 102.728 116.102 102.472 116.998 101.96C117.915 101.427 118.641 100.669 119.174 99.688C119.707 98.6853 119.974 97.5227 119.974 96.2ZM126.751 96.168C126.751 94.376 127.114 92.808 127.839 91.464C128.564 90.0987 129.556 89.0427 130.815 88.296C132.095 87.5493 133.514 87.176 135.071 87.176C136.607 87.176 137.94 87.5067 139.071 88.168C140.202 88.8293 141.044 89.6613 141.599 90.664V87.464H144.543V105H141.599V101.736C141.023 102.76 140.159 103.613 139.007 104.296C137.876 104.957 136.554 105.288 135.039 105.288C133.482 105.288 132.074 104.904 130.815 104.136C129.556 103.368 128.564 102.291 127.839 100.904C127.114 99.5173 126.751 97.9387 126.751 96.168ZM141.599 96.2C141.599 94.8773 141.332 93.7253 140.799 92.744C140.266 91.7627 139.54 91.016 138.623 90.504C137.727 89.9707 136.735 89.704 135.647 89.704C134.559 89.704 133.567 89.96 132.671 90.472C131.775 90.984 131.06 91.7307 130.527 92.712C129.994 93.6933 129.727 94.8453 129.727 96.168C129.727 97.512 129.994 98.6853 130.527 99.688C131.06 100.669 131.775 101.427 132.671 101.96C133.567 102.472 134.559 102.728 135.647 102.728C136.735 102.728 137.727 102.472 138.623 101.96C139.54 101.427 140.266 100.669 140.799 99.688C141.332 98.6853 141.599 97.5227 141.599 96.2ZM158.008 87.144C160.141 87.144 161.869 87.7947 163.192 89.096C164.515 90.376 165.176 92.232 165.176 94.664V105H162.296V95.08C162.296 93.3307 161.859 91.9973 160.984 91.08C160.109 90.1413 158.915 89.672 157.4 89.672C155.864 89.672 154.637 90.152 153.72 91.112C152.824 92.072 152.376 93.4693 152.376 95.304V105H149.464V87.464H152.376V89.96C152.952 89.064 153.731 88.3707 154.712 87.88C155.715 87.3893 156.813 87.144 158.008 87.144ZM170.861 105.192C170.306 105.192 169.837 105 169.453 104.616C169.069 104.232 168.877 103.763 168.877 103.208C168.877 102.653 169.069 102.184 169.453 101.8C169.837 101.416 170.306 101.224 170.861 101.224C171.394 101.224 171.842 101.416 172.205 101.8C172.589 102.184 172.781 102.653 172.781 103.208C172.781 103.763 172.589 104.232 172.205 104.616C171.842 105 171.394 105.192 170.861 105.192Z" fill="white"/>
<path d="M3 105V64" stroke="white" stroke-width="5" stroke-linecap="round"/>
<path d="M75 62.5L39 3" stroke="white" stroke-width="5" stroke-linecap="round"/>
<path d="M17 32.3684L39.1227 3" stroke="white" stroke-width="5" stroke-linecap="round"/>
<path d="M3 64L75.5 64" stroke="white" stroke-width="5" stroke-linecap="round"/>
<circle cx="7.5" cy="45.5" r="5" fill="white" stroke="white"/>
</svg>
